<mxfile host="app.diagrams.net" agent="Mozilla/5.0 (Macintosh; Intel Mac OS X 10_15_7) AppleWebKit/537.36 (KHTML, like Gecko) Chrome/128.0.0.0 Safari/537.36" version="24.7.7">
  <diagram name="Page-1" id="cdGQa0hvRp4n6j0qmgeP">
    <mxGraphModel dx="3370" dy="2802" grid="1" gridSize="10" guides="1" tooltips="1" connect="1" arrows="1" fold="1" page="1" pageScale="1" pageWidth="827" pageHeight="1169" math="0" shadow="0">
      <root>
        <mxCell id="0" />
        <mxCell id="1" parent="0" />
        <mxCell id="ZRzHcR3lEo0amxcgC2H1-10" value="" style="group" vertex="1" connectable="0" parent="1">
          <mxGeometry x="-1570" y="760" width="220" height="80" as="geometry" />
        </mxCell>
        <mxCell id="ZRzHcR3lEo0amxcgC2H1-5" value="" style="whiteSpace=wrap;html=1;aspect=fixed;fillColor=#f8cecc;strokeColor=#b85450;" vertex="1" parent="ZRzHcR3lEo0amxcgC2H1-10">
          <mxGeometry width="80" height="80" as="geometry" />
        </mxCell>
        <mxCell id="ZRzHcR3lEo0amxcgC2H1-6" value="Infrastructure" style="text;html=1;align=center;verticalAlign=middle;whiteSpace=wrap;rounded=0;fontSize=72;" vertex="1" parent="1">
          <mxGeometry x="-1270" y="785" width="60" height="30" as="geometry" />
        </mxCell>
        <mxCell id="ZRzHcR3lEo0amxcgC2H1-11" value="" style="group" vertex="1" connectable="0" parent="1">
          <mxGeometry x="-1100" y="-650" width="1070" height="1070" as="geometry" />
        </mxCell>
        <mxCell id="ZRzHcR3lEo0amxcgC2H1-2" value="" style="ellipse;whiteSpace=wrap;html=1;aspect=fixed;" vertex="1" parent="ZRzHcR3lEo0amxcgC2H1-11">
          <mxGeometry width="1070" height="1070" as="geometry" />
        </mxCell>
        <mxCell id="ZRzHcR3lEo0amxcgC2H1-4" value="&lt;font style=&quot;font-size: 72px;&quot;&gt;Bootstrap&lt;/font&gt;" style="text;html=1;align=center;verticalAlign=middle;whiteSpace=wrap;rounded=0;" vertex="1" parent="ZRzHcR3lEo0amxcgC2H1-11">
          <mxGeometry x="315" y="80" width="440" height="30" as="geometry" />
        </mxCell>
        <mxCell id="ZRzHcR3lEo0amxcgC2H1-12" value="&lt;font style=&quot;font-size: 16px;&quot;&gt;Init core, stores&lt;/font&gt;" style="rounded=0;whiteSpace=wrap;html=1;" vertex="1" parent="ZRzHcR3lEo0amxcgC2H1-11">
          <mxGeometry x="187" y="210" width="243" height="60" as="geometry" />
        </mxCell>
        <mxCell id="ZRzHcR3lEo0amxcgC2H1-13" value="&lt;font style=&quot;font-size: 16px;&quot;&gt;init extensions&lt;/font&gt;" style="rounded=0;whiteSpace=wrap;html=1;" vertex="1" parent="ZRzHcR3lEo0amxcgC2H1-11">
          <mxGeometry x="187" y="300" width="243" height="60" as="geometry" />
        </mxCell>
      </root>
    </mxGraphModel>
  </diagram>
</mxfile>
